<svg xmlns="http://www.w3.org/2000/svg" width="99" height="20"><g fill="#444bf8"><path d="M27.96 16V7.63h.108l3.301 8.25h1.432l3.307-8.238h.108V16h1.739V4.364h-2.16L32.17 13.21h-.136l-3.659-8.846h-2.153V16h1.738zm13.21-9.727c.648 0 1.097-.472 1.097-1.034 0-.534-.449-1.034-1.097-1.034-.647 0-1.096.5-1.096 1.034 0 .562.449 1.034 1.096 1.034zM42.051 16V7.273h-1.75V16h1.75zm3.972 0v-4.937c.011-1.08.79-2.233 2.04-2.233.369 0 .647.113.778.181l.562-1.562a2.51 2.51 0 00-1.181-.307c-.944 0-1.87.642-2.12 1.506H46V7.273h-1.727V16h1.75zm5.528-9.727c.648 0 1.097-.472 1.097-1.034 0-.534-.45-1.034-1.097-1.034-.648 0-1.096.5-1.096 1.034 0 .562.448 1.034 1.096 1.034zm.88 9.727V7.273h-1.75V16h1.75zm11.399.187c2.562 0 4.58-1.5 4.58-4.124v-7.7h-1.802v7.671c0 1.597-1.256 2.506-2.778 2.506-1.529 0-2.796-.91-2.796-2.506v-7.67h-1.801v7.699c0 2.625 2.023 4.124 4.597 4.124zM72.648 16V4.364h-1.801V16h1.8zm8.699 0v-3.483l1.431-1.59L86.528 16h2.165l-4.79-6.34 4.904-5.296h-2.358l-4.96 5.483h-.142V4.364h-1.802V16h1.802zm9.79-9.727c.647 0 1.096-.472 1.096-1.034 0-.534-.449-1.034-1.097-1.034-.647 0-1.096.5-1.096 1.034 0 .562.449 1.034 1.096 1.034zm.88 9.727V7.273h-1.75V16h1.75zm5.12.114c.647 0 1.073-.12 1.25-.188l-.313-1.437a2.536 2.536 0 01-.574.068c-.54 0-1.028-.154-1.028-1.137V8.705h1.704V7.273h-1.704V5.409h-1.75v1.864h-1.21v1.432h1.21v5.062c0 1.534 1.193 2.347 2.414 2.347zM10 20C4.486 20 0 15.514 0 10S4.486 0 10 0s10 4.486 10 10-4.486 10-10 10zm0-18.75c-4.825 0-8.75 3.925-8.75 8.75s3.925 8.75 8.75 8.75 8.75-3.925 8.75-8.75S14.825 1.25 10 1.25z"/><path d="M10 13.75A3.754 3.754 0 016.25 10 3.754 3.754 0 0110 6.25 3.754 3.754 0 0113.75 10 3.754 3.754 0 0110 13.75zm0-6.25A2.502 2.502 0 007.5 10c0 1.379 1.121 2.5 2.5 2.5s2.5-1.121 2.5-2.5-1.121-2.5-2.5-2.5z"/><path d="M10 11.25a1.25 1.25 0 110-2.5 1.25 1.25 0 010 2.5z"/></g></svg>