<svg xmlns="http://www.w3.org/2000/svg" width="20" height="20"><g fill="#FFF"><path d="M10 20C4.486 20 0 15.514 0 10S4.486 0 10 0s10 4.486 10 10-4.486 10-10 10zm0-18.75c-4.825 0-8.75 3.925-8.75 8.75s3.925 8.75 8.75 8.75 8.75-3.925 8.75-8.75S14.825 1.25 10 1.25z"/><path d="M10 13.75A3.754 3.754 0 016.25 10 3.754 3.754 0 0110 6.25 3.754 3.754 0 0113.75 10 3.754 3.754 0 0110 13.75zm0-6.25A2.502 2.502 0 007.5 10c0 1.379 1.121 2.5 2.5 2.5s2.5-1.121 2.5-2.5-1.121-2.5-2.5-2.5z"/><path d="M10 11.25a1.25 1.25 0 110-2.5 1.25 1.25 0 010 2.5zM5.179 6.023l-.965-.796A7.482 7.482 0 0110 2.5v1.25a6.232 6.232 0 00-4.821 2.273zM10 17.5v-1.25a6.232 6.232 0 004.821-2.273l.965.796A7.482 7.482 0 0110 17.5z"/></g></svg>